<svg style="position: absolute; width: 0; height: 0; overflow: hidden;" aria-hidden="true" version="1.1" xmlns="http://www.w3.org/2000/svg" xmlns:xlink="http://www.w3.org/1999/xlink">
    <style>
        .default-palette, .palette0 {color: currentColor;
            --color0: #fff;
            --color1: #444;
            --color2: #212121;
            --color3: #afb1b8;
            --color4: #757575;
            --color5: currentColor;
            --color6: #000;
            --accent-color1: currentColor;
        }
    </style>
    <defs>
        <symbol id="WebStudio" viewBox="0 0 145 31" fill="none" customframe="#000000" xmlns:xlink="http://www.w3.org/1999/xlink">
            <path id="WebStudio" fill="var(--color5, currentColor)" d="M8.294 6.27h3.302l2.08 6.11 2.08-6.11h3.328l-3.146 8.398 2.34 5.902 5.226-14.352h3.9l-7.514 18.46h-3.016l-3.198-7.748-3.198 7.748H7.462L0 6.218h3.848L9.1 20.57l2.288-5.902zM34.3793 24.938c-1.092 0-2.08-0.182-2.964-0.546-0.884-0.3813-1.638-0.8927-2.262-1.534s-1.1093-1.3867-1.456-2.236c-0.3293-0.8493-0.494-1.742-0.494-2.678 0-0.9707 0.1647-1.8807 0.494-2.73 0.3293-0.8667 0.806-1.6207 1.43-2.262 0.624-0.6587 1.378-1.1787 2.262-1.56 0.9013-0.3813 1.9067-0.572 3.016-0.572s2.0973 0.1907 2.964 0.572c0.884 0.3813 1.6293 0.8927 2.236 1.534 0.624 0.6413 1.092 1.3867 1.404 2.236 0.3293 0.8493 0.494 1.7333 0.494 2.652 0 0.2253-87e-4 0.442-0.026 0.65 0 0.208-0.0173 0.3813-0.052 0.52h-10.53c0.052 0.5373 0.182 1.014 0.39 1.43s0.4767 0.7713 0.806 1.066 0.702 0.52 1.118 0.676 0.8493 0.234 1.3 0.234c0.6933 0 1.3433-0.1647 1.95-0.494 0.624-0.3467 1.0487-0.7973 1.274-1.352l2.99 0.832c-0.5027 1.04-1.3087 1.898-2.418 2.574-1.092 0.6587-2.4007 0.988-3.926 0.988zM37.9153 16.722c-0.0867-1.0227-0.468-1.8373-1.144-2.444-0.6587-0.624-1.4647-0.936-2.418-0.936-0.468 0-0.91 0.0867-1.326 0.26-0.3987 0.156-0.754 0.3813-1.066 0.676s-0.572 0.65-0.78 1.066c-0.1907 0.416-0.3033 0.8753-0.338 1.378zM52.1538 24.938c-1.04 0-1.9674-0.234-2.782-0.702-0.8147-0.468-1.456-1.1093-1.924-1.924v2.366h-3.042V5.698h3.484v7.748c0.4853-0.832 1.118-1.4733 1.898-1.924 0.7973-0.468 1.7246-0.702 2.782-0.702 0.884 0 1.69 0.1907 2.418 0.572s1.352 0.8927 1.872 1.534c0.5373 0.6413 0.9446 1.3953 1.222 2.262 0.2946 0.8667 0.442 1.7767 0.442 2.73 0 0.988-0.1647 1.9067-0.494 2.756-0.312 0.8493-0.754 1.5947-1.326 2.236-0.572 0.624-1.248 1.118-2.028 1.482s-1.6207 0.546-2.522 0.546zM51.1918 21.974c0.5546 0 1.066-0.104 1.534-0.312 0.468-0.2253 0.8666-0.52 1.196-0.884 0.3293-0.364 0.5806-0.7887 0.754-1.274 0.1906-0.4853 0.286-1.0053 0.286-1.56s-0.0867-1.0833-0.26-1.586c-0.1734-0.5027-0.4247-0.9447-0.754-1.326-0.312-0.3813-0.6847-0.6847-1.118-0.91-0.4334-0.2253-0.91-0.338-1.43-0.338-0.78 0-1.482 0.26-2.106 0.78-0.6067 0.5027-1.0747 1.1267-1.404 1.872v3.25c0.1213 0.3467 0.2946 0.6587 0.52 0.936 0.2426 0.2773 0.5113 0.52 0.806 0.728 0.2946 0.1907 0.6153 0.3467 0.962 0.468 0.3466 0.104 0.6846 0.156 1.014 0.156z" />
            <path id="WebStudio" fill="var(--color6, #000)" d="M73.0003 11.054c-0.1213-0.1213-0.3467-0.286-0.676-0.494-0.312-0.208-0.702-0.4073-1.17-0.598-0.4507-0.208-0.9447-0.3813-1.482-0.52-0.5374-0.1387-1.0833-0.208-1.638-0.208-0.988 0-1.7247 0.182-2.21 0.546s-0.728 0.8753-0.728 1.534c0 0.3813 0.0866 0.702 0.26 0.962 0.1907 0.2427 0.4593 0.4593 0.806 0.65 0.3466 0.1907 0.78 0.364 1.3 0.52 0.5373 0.156 1.1526 0.3207 1.846 0.494 0.9013 0.2427 1.716 0.5027 2.444 0.78 0.7453 0.2773 1.3693 0.624 1.872 1.04 0.52 0.416 0.9186 0.9187 1.196 1.508 0.2773 0.572 0.416 1.2827 0.416 2.132 0 0.988-0.1907 1.8373-0.572 2.548-0.364 0.6933-0.8667 1.2567-1.508 1.69-0.624 0.4333-1.352 0.754-2.184 0.962-0.8147 0.1907-1.6727 0.286-2.574 0.286-1.3867 0-2.756-0.208-4.108-0.624s-2.5654-1.0053-3.64-1.768l1.586-3.094c0.156 0.156 0.4333 0.364 0.832 0.624 0.416 0.2427 0.9013 0.494 1.456 0.754 0.5546 0.2427 1.17 0.4507 1.846 0.624s1.3693 0.26 2.08 0.26c1.976 0 2.964-0.6327 2.964-1.898 0-0.3987-0.1127-0.7367-0.338-1.014s-0.546-0.52-0.962-0.728-0.9187-0.3987-1.508-0.572c-0.5894-0.1733-1.248-0.364-1.976-0.572-0.884-0.2427-1.6554-0.5027-2.314-0.78-0.6414-0.2947-1.1787-0.6327-1.612-1.014-0.4334-0.3987-0.7627-0.8493-0.988-1.352-0.208-0.52-0.312-1.1353-0.312-1.846 0-0.936 0.1733-1.768 0.52-2.496 0.3466-0.728 0.8233-1.3347 1.43-1.82 0.624-0.4853 1.3433-0.8493 2.158-1.092 0.8147-0.26 1.69-0.39 2.626-0.39 1.3 0 2.496 0.208 3.588 0.624 1.092 0.3987 2.0453 0.8753 2.86 1.43zM86.4013 23.976c-0.468 0.208-1.04 0.416-1.716 0.624s-1.3867 0.312-2.132 0.312c-0.4854 0-0.9447-0.0607-1.378-0.182-0.416-0.1213-0.7887-0.312-1.118-0.572-0.312-0.2773-0.5634-0.624-0.754-1.04-0.1907-0.4333-0.286-0.9533-0.286-1.56v-7.826h-1.794v-2.678h1.794v-4.42h3.484v4.42h2.86v2.678h-2.86v6.656c0 0.4853 0.1213 0.832 0.3639 1.04 0.2601 0.1907 0.5721 0.286 0.9361 0.286s0.7193-0.0607 1.066-0.182c0.3466-0.1213 0.624-0.2253 0.8319-0.312zM93.1558 24.938c-1.404 0-2.47-0.4507-3.198-1.352s-1.092-2.236-1.092-4.004v-8.528h3.484v7.774c0 2.0973 0.754 3.146 2.262 3.146 0.676 0 1.326-0.1993 1.95-0.598 0.6413-0.416 1.1613-1.04 1.56-1.872v-8.45h3.4842v9.62c0 0.364 0.06 0.624 0.182 0.78 0.138 0.156 0.355 0.2427 0.65 0.26v2.964c-0.347 0.0693-0.642 0.1127-0.884 0.13-0.226 0.0173-0.434 0.026-0.624 0.026-0.624 0-1.1356-0.1387-1.5342-0.416-0.3814-0.2947-0.6067-0.6933-0.676-1.196l-0.078-1.092c-0.6067 0.936-1.3867 1.638-2.34 2.106-0.9534 0.468-2.002 0.702-3.146 0.702zM111.49 24.938c-0.936 0-1.803-0.182-2.6-0.546s-1.482-0.8667-2.054-1.508-1.023-1.3867-1.352-2.236c-0.312-0.8667-0.468-1.794-0.468-2.782s0.147-1.9067 0.442-2.756c0.312-0.8493 0.737-1.5947 1.274-2.236s1.179-1.144 1.924-1.508 1.56-0.546 2.444-0.546c1.005 0 1.907 0.2427 2.704 0.728 0.815 0.4853 1.447 1.118 1.898 1.898V5.698h3.484v14.976c0 0.364 0.061 0.624 0.182 0.78s0.329 0.2427 0.624 0.26v2.964c-0.607 0.1213-1.101 0.182-1.482 0.182-0.624 0-1.135-0.156-1.534-0.468s-0.624-0.7193-0.676-1.222l-0.078-0.858c-0.503 0.8667-1.187 1.5253-2.054 1.976-0.849 0.4333-1.742 0.65-2.678 0.65zM112.4 21.974c0.329 0 0.667-0.052 1.014-0.156 0.347-0.1213 0.667-0.286 0.962-0.494s0.555-0.4507 0.78-0.728c0.243-0.2773 0.425-0.5807 0.546-0.91v-3.25c-0.139-0.3813-0.338-0.728-0.598-1.04-0.243-0.3293-0.529-0.6067-0.858-0.832-0.312-0.2427-0.65-0.4333-1.014-0.572-0.347-0.1387-0.693-0.208-1.04-0.208-0.52 0-1.005 0.1127-1.456 0.338-0.433 0.2253-0.806 0.5373-1.118 0.936-0.312 0.3813-0.555 0.8233-0.728 1.326s-0.26 1.0227-0.26 1.56c0 0.572 0.095 1.1007 0.286 1.586s0.451 0.91 0.78 1.274 0.719 0.65 1.17 0.858c0.468 0.208 0.979 0.312 1.534 0.312zM123.386 24.678V11.054h3.484v13.624zM123.386 9.156V5.698h3.484v3.458zM137.085 24.938c-1.11 0-2.106-0.1907-2.99-0.572s-1.638-0.8927-2.262-1.534c-0.607-0.6587-1.075-1.4127-1.404-2.262-0.33-0.8493-0.494-1.742-0.494-2.678 0-0.9533 0.164-1.8547 0.494-2.704 0.329-0.8493 0.797-1.5947 1.404-2.236 0.624-0.6587 1.378-1.1787 2.262-1.56s1.88-0.572 2.99-0.572c1.109 0 2.097 0.1907 2.964 0.572 0.884 0.3813 1.629 0.9013 2.236 1.56 0.624 0.6413 1.1 1.3867 1.43 2.236 0.329 0.8493 0.494 1.7507 0.494 2.704 0 0.936-0.165 1.8287-0.494 2.678-0.33 0.8493-0.798 1.6033-1.404 2.262-0.607 0.6413-1.352 1.1527-2.236 1.534s-1.881 0.572-2.99 0.572zM133.523 17.892c0 0.6067 0.086 1.1613 0.26 1.664 0.19 0.4853 0.442 0.91 0.754 1.274 0.329 0.364 0.71 0.65 1.144 0.858 0.433 0.1907 0.901 0.286 1.404 0.286 0.502 0 0.97-0.0953 1.404-0.286 0.433-0.208 0.806-0.494 1.118-0.858 0.329-0.364 0.58-0.7973 0.754-1.3 0.19-0.5027 0.286-1.0573 0.286-1.664 0-0.5893-0.096-1.1353-0.286-1.638-0.174-0.5027-0.425-0.936-0.754-1.3-0.312-0.364-0.685-0.6413-1.118-0.832-0.434-0.208-0.902-0.312-1.404-0.312-0.503 0-0.971 0.104-1.404 0.312-0.434 0.208-0.815 0.494-1.144 0.858-0.312 0.364-0.564 0.7973-0.754 1.3-0.174 0.5027-0.26 1.0487-0.26 1.638z" />
        </symbol>
        <symbol id="EXTRACT_SVGS_icon-logo-4" viewBox="0 0 61 32" fill="currentColor">
            <path fill="#000" d="M9.444 9.77h-2e-3c-1.723 0-3.119 1.361-3.119 3.04v2e-3c0 1.679 1.397 3.04 3.119 3.04h2e-3c1.723 0 3.119-1.361 3.119-3.04v-2e-3c0-1.679-1.397-3.04-3.119-3.04z" />
            <path d="M32.467 8.798c-5e-3-2.332-0.957-4.567-2.649-6.215S25.833 5e-3 23.441 0v0c-2.393 4e-3-4.687 0.932-6.38 2.582s-2.646 3.884-2.651 6.217v12.858c0 0 18.055-1.96 18.057-12.856z" />
            <path fill="#000" d="M0 25.877c4e-3 1.622 0.667 3.177 1.845 4.325s2.772 1.794 4.437 1.799c1.664-5e-3 3.259-0.651 4.436-1.798s1.84-2.701 1.845-4.323v-8.947c0 0-12.563 1.365-12.563 8.944zM6.282 27.48c-0.325 0-0.643-0.094-0.914-0.27s-0.481-0.427-0.606-0.719-0.157-0.615-0.094-0.926 0.22-0.597 0.45-0.821 0.523-0.377 0.842-0.439 0.65-0.03 0.95 0.091 0.557 0.327 0.738 0.59c0.181 0.264 0.277 0.574 0.277 0.891 1e-3 0.211-0.041 0.42-0.123 0.615s-0.203 0.373-0.356 0.522-0.334 0.268-0.534 0.349-0.414 0.123-0.631 0.123z" />
            <path d="M19.105 26.143H17.82v1.327h-0.669v-3.248h2.115v0.542H17.82v0.839h1.285zM22.322 25.92c0 0.32-0.056 0.6-0.17 0.841s-0.275 0.427-0.486 0.558c-0.21 0.131-0.451 0.196-0.723 0.196-0.269 0-0.509-0.065-0.721-0.194s-0.375-0.314-0.491-0.553c-0.116-0.241-0.175-0.517-0.176-0.83v-0.161c0-0.32 0.057-0.601 0.172-0.843 0.116-0.244 0.279-0.431 0.489-0.56 0.211-0.131 0.452-0.196 0.723-0.196s0.511 0.065 0.721 0.196c0.211 0.129 0.374 0.316 0.489 0.56 0.116 0.242 0.174 0.523 0.174 0.841zM21.643 25.773c0-0.341-0.061-0.599-0.183-0.776s-0.296-0.266-0.522-0.266c-0.225 0-0.398 0.088-0.52 0.263-0.122 0.174-0.184 0.43-0.185 0.767v0.158c0 0.332 0.061 0.589 0.183 0.772s0.297 0.274 0.526 0.274c0.225 0 0.397-0.088 0.518-0.263 0.12-0.177 0.181-0.434 0.183-0.772zM24.492 26.618c0-0.126-0.045-0.223-0.134-0.29-0.089-0.068-0.25-0.14-0.482-0.214-0.232-0.076-0.416-0.15-0.551-0.223-0.369-0.199-0.553-0.468-0.553-0.805 0-0.176 0.049-0.332 0.147-0.469 0.1-0.138 0.242-0.246 0.426-0.323 0.186-0.077 0.394-0.116 0.625-0.116 0.232 0 0.439 0.042 0.62 0.127 0.181 0.083 0.322 0.201 0.422 0.355 0.101 0.153 0.152 0.327 0.152 0.522h-0.669c0-0.149-0.047-0.264-0.141-0.346-0.094-0.083-0.225-0.125-0.395-0.125-0.164 0-0.291 0.035-0.381 0.105-0.091 0.068-0.136 0.159-0.136 0.272 0 0.106 0.053 0.194 0.158 0.265 0.107 0.071 0.264 0.138 0.471 0.201 0.381 0.115 0.658 0.257 0.832 0.426s0.261 0.381 0.261 0.634c0 0.281-0.106 0.502-0.319 0.663-0.213 0.159-0.499 0.239-0.859 0.239-0.25 0-0.477-0.045-0.683-0.136-0.205-0.092-0.362-0.218-0.471-0.377-0.107-0.159-0.161-0.344-0.161-0.553h0.672c0 0.358 0.214 0.538 0.642 0.538 0.159 0 0.283-0.032 0.373-0.096 0.089-0.066 0.134-0.156 0.134-0.274zM28.064 24.764h-0.995v2.706H26.4v-2.706h-0.982v-0.542h2.646zM30.402 26.063h-1.285v0.87h1.508v0.538h-2.177v-3.248h2.173v0.542h-1.504v0.774h1.285zM32.22 26.281h-0.533v1.189h-0.669v-3.248h1.207c0.384 0 0.68 0.085 0.888 0.257s0.312 0.413 0.312 0.725c0 0.222-0.048 0.407-0.145 0.555-0.095 0.147-0.24 0.265-0.435 0.352l0.703 1.327v0.031H32.83zM31.687 25.739h0.54c0.168 0 0.298-0.042 0.39-0.127 0.092-0.086 0.138-0.205 0.138-0.355 0-0.153-0.044-0.274-0.132-0.361-0.086-0.088-0.219-0.132-0.399-0.132h-0.538zM35.743 26.326v1.144h-0.669v-3.248h1.267c0.244 0 0.458 0.045 0.643 0.134 0.186 0.089 0.329 0.216 0.428 0.381 0.1 0.164 0.149 0.35 0.149 0.56 0 0.318-0.109 0.57-0.328 0.754-0.217 0.183-0.518 0.274-0.904 0.274zM35.743 25.784h0.598c0.177 0 0.312-0.042 0.404-0.125 0.094-0.083 0.141-0.202 0.141-0.357 0-0.159-0.047-0.288-0.141-0.386s-0.223-0.149-0.388-0.152h-0.613zM39.977 26.063h-1.285v0.87H40.2v0.538h-2.177v-3.248h2.173v0.542h-1.504v0.774h1.285zM43.082 24.764h-0.995v2.706h-0.669v-2.706h-0.982v-0.542h2.646zM45.42 26.063h-1.285v0.87h1.508v0.538h-2.177v-3.248h2.173v0.542h-1.504v0.774h1.285zM47.238 26.281h-0.533v1.189h-0.669v-3.248h1.207c0.384 0 0.68 0.085 0.888 0.257s0.312 0.413 0.312 0.725c0 0.222-0.048 0.407-0.145 0.555-0.095 0.147-0.24 0.265-0.435 0.352l0.703 1.327v0.031h-0.718zM46.705 25.739h0.54c0.168 0 0.298-0.042 0.39-0.127 0.092-0.086 0.138-0.205 0.138-0.355 0-0.153-0.044-0.274-0.132-0.361-0.086-0.088-0.219-0.132-0.399-0.132h-0.538zM50.638 26.618c0-0.126-0.045-0.223-0.134-0.29-0.089-0.068-0.25-0.14-0.482-0.214-0.232-0.076-0.416-0.15-0.551-0.223-0.369-0.199-0.553-0.468-0.553-0.805 0-0.176 0.049-0.332 0.147-0.469 0.1-0.138 0.242-0.246 0.426-0.323 0.186-0.077 0.394-0.116 0.625-0.116 0.232 0 0.439 0.042 0.62 0.127 0.181 0.083 0.322 0.201 0.422 0.355 0.101 0.153 0.152 0.327 0.152 0.522h-0.669c0-0.149-0.047-0.264-0.141-0.346-0.094-0.083-0.225-0.125-0.395-0.125-0.164 0-0.291 0.035-0.382 0.105-0.091 0.068-0.136 0.159-0.136 0.272 0 0.106 0.053 0.194 0.158 0.265 0.107 0.071 0.264 0.138 0.471 0.201 0.381 0.115 0.658 0.257 0.832 0.426s0.261 0.381 0.261 0.634c0 0.281-0.106 0.502-0.319 0.663-0.213 0.159-0.499 0.239-0.859 0.239-0.25 0-0.477-0.045-0.683-0.136-0.205-0.092-0.362-0.218-0.471-0.377-0.107-0.159-0.161-0.344-0.161-0.553h0.671c0 0.358 0.214 0.538 0.643 0.538 0.159 0 0.283-0.032 0.373-0.096 0.089-0.066 0.134-0.156 0.135-0.274z" />
        </symbol>
        <symbol id="EXTRACT_SVGS_icon-close-black" viewBox="0 0 32 32" fill="currentColor">
            <path d="M26.667 9.081l-1.97-1.97-7.808 7.808-7.808-7.808-1.97 1.97 7.808 7.808-7.808 7.808 1.97 1.97 7.808-7.808 7.808 7.808 1.97-1.97-7.808-7.808z" />
        </symbol>
        <symbol id="EXTRACT_SVGS_icon-icon-check" viewBox="0 0 34 32" fill="var(--color0, #fff)">
            <path fill="var(--color1, #444)" d="M4.267 0h25.6c2.356 0 4.267 1.91 4.267 4.267v23.467c0 2.356-1.91 4.267-4.267 4.267h-25.6C1.911 32.001 0 30.091 0 27.734V4.267C0 1.911 1.91 0 4.267 0z" />
            <path d="M13.858 21.998 8.295 16.691 6.401 18.485l7.458 7.114 16.009-15.272-1.881-1.794z" />
            <path d="M13.858 21.409 27.986 7.944l2.499 2.384L13.858 26.19 5.781 18.485l2.515-2.382zM13.858 21.998 8.295 16.691 6.401 18.485l7.458 7.114 16.009-15.272-1.881-1.794z" />
        </symbol>
        <symbol id="EXTRACT_SVGS_icon-antenna" viewBox="0 0 32 32">
            <path fill="var(--color2, #212121)" d="M30.773 22.098 22.33 13.593l0.937-4.615c0.242 0.094 0.499 0.144 0.758 0.146h6e-3c1.192 0.014 2.17-0.941 2.184-2.133s-0.941-2.17-2.133-2.184-2.17 0.941-2.184 2.133c-3e-3 0.255 0.039 0.509 0.125 0.749l-4.96 0.605-8.091-8.133C8.873 0.06 8.737 2e-3 8.595 1e-3 8.455 2e-3 8.321 0.057 8.222 0.156L6.709 1.66c-0.208 0.208-0.208 0.546 0 0.754L7.523 3.24C4.37 9.038 5.394 16.218 10.042 20.903c0.043 0.041 0.092 0.074 0.146 0.098-0.034 0.18-0.051 0.364-0.052 0.547v6.187h-6.4c-1.472 2e-3-2.665 1.195-2.667 2.667v1.067c0 0.295 0.239 0.533 0.533 0.533h24.533c0.295 0 0.533-0.239 0.533-0.533v-1.067c-2e-3-1.472-1.195-2.665-2.667-2.667h-6.4v-2.742c1.003 0.21 2.024 0.317 3.049 0.32 2.458-3e-3 4.877-0.615 7.04-1.783l0.818 0.823c0.099 0.101 0.235 0.159 0.377 0.16 0.14-1e-3 0.274-0.056 0.373-0.155l1.513-1.504c0.208-0.208 0.208-0.546 2e-3-0.756zM23.28 6.233c0.418-0.415 1.093-0.414 1.508 4e-3s0.414 1.093-4e-3 1.508c-0.2 0.199-0.47 0.31-0.752 0.31h-3e-3c-0.589-3e-3-1.064-0.483-1.061-1.072 2e-3-0.282 0.115-0.552 0.314-0.751zM22.024 9.738l-0.598 2.946-1.175-1.182zM21.419 8.836l-1.92 1.909-1.485-1.493zM24.004 28.8c0.884 0 1.6 0.716 1.6 1.6v0.533H2.137V30.4c0-0.884 0.716-1.6 1.6-1.6zM16.537 26.667v1.067h-5.333v-1.067zM11.204 25.6v-4.053c0-1.294 1.196-2.347 2.667-2.347s2.667 1.053 2.667 2.347V25.6zM17.604 23.904v-2.357c0-1.882-1.675-3.413-3.733-3.413-1.331-0.02-2.576 0.657-3.281 1.786C6.532 15.646 5.619 9.275 8.311 4.033l18.602 18.708c-2.872 1.461-6.165 1.873-9.309 1.163zM28.893 23.22 7.836 2.039 8.591 1.287l7.935 7.98c4e-3 0 6e-3 7e-3 0.01 0.01l13.115 13.191z" />
            <path fill="var(--color1, #444)" d="M13.876 20.267h-5e-3c-0.884-1e-3-1.601 0.714-1.602 1.598s0.714 1.601 1.598 1.602h5e-3c0.884 1e-3 1.601-0.714 1.602-1.598s-0.714-1.601-1.598-1.602zM14.249 22.245c-0.1 0.1-0.236 0.156-0.378 0.155-0.295-2e-3-0.532-0.242-0.531-0.536 1e-3-0.141 0.057-0.276 0.157-0.375s0.233-0.154 0.373-0.155c0.295 2e-3 0.532 0.241 0.53 0.536-1e-3 0.141-0.057 0.276-0.157 0.375z" />
        </symbol>
        <symbol id="EXTRACT_SVGS_icon-person-black" viewBox="0 0 32 32" fill="currentColor">
            <path d="M16 16c2.947 0 5.333-2.387 5.333-5.333S18.946 5.334 16 5.334c-2.947 0-5.333 2.387-5.333 5.333S13.054 16 16 16zM16 18.667c-3.56 0-10.667 1.787-10.667 5.333v1.333c0 0.733 0.6 1.333 1.333 1.333h18.667c0.733 0 1.333-0.6 1.333-1.333V24c0-3.547-7.107-5.333-10.666-5.333z" />
        </symbol>
        <symbol id="EXTRACT_SVGS_icon-icon-send" viewBox="0 0 32 32">
            <path fill="var(--color0, #fff)" d="M32 0 0 18l10.227 3.788L26 7.001 14.002 23.187l0.01 4e-3L14 23.187v8.814l5.735-6.691L27 28.001z" />
        </symbol>
        <symbol id="EXTRACT_SVGS_icon-email-black" viewBox="0 0 32 32" fill="currentColor">
            <path d="M26.667 5.333H5.334c-1.467 0-2.653 1.2-2.653 2.667L2.668 24c0 1.467 1.2 2.667 2.667 2.667h21.333c1.467 0 2.667-1.2 2.667-2.667V8c0-1.467-1.2-2.667-2.668-2.667zM26.133 11l-9.427 5.893c-0.427 0.267-0.987 0.267-1.413 0L5.866 11c-0.333-0.213-0.533-0.573-0.533-0.96 0-0.893 0.973-1.427 1.733-0.96l8.933 5.587 8.933-5.587c0.76-0.467 1.733 0.067 1.733 0.96 0 0.387-0.2 0.747-0.532 0.96z" />
        </symbol>
        <symbol id="EXTRACT_SVGS_icon-phone-black" viewBox="0 0 32 32" fill="currentColor">
            <path d="M24.882 19.773 21.614 19.4c-0.785-0.09-1.557 0.18-2.11 0.733L17.137 22.5c-3.641-1.853-6.626-4.825-8.478-8.478l2.38-2.38c0.553-0.553 0.823-1.325 0.733-2.11L11.399 6.29c-0.154-1.299-1.248-2.277-2.56-2.277H6.613c-1.454 0-2.663 1.209-2.573 2.663 0.682 10.987 9.469 19.761 20.443 20.443 1.454 0.09 2.663-1.119 2.663-2.573V22.32c0.013-1.299-0.965-2.393-2.264-2.547z" />
        </symbol>
        <symbol id="EXTRACT_SVGS_icon-logo-6" viewBox="0 0 62 32" fill="var(--color3, #afb1b8)">
            <path d="M31.507 15.037c-0.294-0.43-0.435-0.938-0.402-1.449v-2.1c0-0.644 0.133-1.133 0.399-1.468s0.724-0.501 1.372-0.5c0.609 0 1.042 0.142 1.298 0.427 0.279 0.364 0.415 0.808 0.384 1.256v0.494h-1.09v-0.5c4e-3-0.164-7e-3-0.327-0.032-0.489-0.016-0.111-0.071-0.213-0.156-0.291-0.112-0.083-0.253-0.124-0.395-0.113-0.149-0.011-0.297 0.032-0.415 0.12-0.095 0.086-0.158 0.198-0.181 0.321-0.031 0.171-0.046 0.345-0.043 0.519v2.549c-0.017 0.246 0.031 0.492 0.14 0.716 0.054 0.076 0.13 0.136 0.218 0.173s0.185 0.052 0.281 0.04c0.14 0.011 0.278-0.031 0.386-0.115 0.089-0.083 0.146-0.192 0.163-0.31 0.025-0.169 0.037-0.34 0.034-0.511v-0.517h1.09v0.472c0.031 0.467-0.102 0.931-0.377 1.321-0.251 0.312-0.677 0.468-1.304 0.468s-1.101-0.167-1.37-0.513z" />
            <path d="M36.046 15.059c-0.275-0.327-0.413-0.803-0.413-1.434v-2.209c0-0.624 0.138-1.096 0.413-1.417s0.736-0.48 1.381-0.479c0.641 0 1.099 0.159 1.374 0.479 0.275 0.321 0.415 0.793 0.415 1.417v2.209c0 0.624-0.14 1.103-0.42 1.432s-0.736 0.494-1.37 0.494-1.104-0.167-1.38-0.492zM37.935 14.529c0.099-0.205 0.144-0.429 0.131-0.654V11.17c0.013-0.22-0.031-0.44-0.129-0.641-0.055-0.077-0.132-0.138-0.223-0.176s-0.19-0.051-0.287-0.038c-0.098-0.013-0.198 0-0.288 0.038s-0.168 0.099-0.224 0.176c-0.099 0.2-0.144 0.42-0.131 0.641v2.718c-0.014 0.225 0.031 0.449 0.131 0.654 0.064 0.069 0.142 0.124 0.23 0.162s0.184 0.057 0.28 0.057c0.097 0 0.192-0.02 0.28-0.057s0.166-0.093 0.23-0.162z" />
            <path d="M40.528 9.585h1.174l0.882 4.076 0.903-4.076h1.142l0.115 5.884H43.9l-0.09-4.089-0.871 4.089h-0.677l-0.903-4.104-0.083 4.104h-0.853z" />
            <path d="M46.06 9.585h1.828c1.053 0 1.58 0.557 1.58 1.671 0 1.067-0.554 1.599-1.663 1.598h-0.623v2.615h-1.129zM47.622 12.1c0.112 0.013 0.225 4e-3 0.332-0.028s0.206-0.086 0.289-0.157c0.129-0.199 0.186-0.432 0.162-0.664 6e-3-0.18-0.012-0.359-0.054-0.534-0.016-0.059-0.044-0.113-0.083-0.161s-0.087-0.088-0.143-0.118c-0.157-0.071-0.33-0.104-0.503-0.094h-0.438v1.758z" />
            <path d="M51.096 9.585h1.212l1.244 5.884H52.5l-0.246-1.357h-1.081l-0.253 1.357h-1.068zM52.132 13.431l-0.422-2.47-0.422 2.47z" />
            <path d="M54.555 9.585h0.79l1.512 3.356V9.585h0.937v5.884h-0.752l-1.521-3.504v3.504h-0.968z" />
            <path d="M59.988 13.225 58.731 9.593h1.059l0.767 2.333 0.72-2.333h1.036l-1.241 3.632v2.243h-1.083z" />
            <path d="M33.25 18.041v0.308h-0.921v2.391h-0.386v-2.391h-0.925v-0.308z" />
            <path d="M36.136 20.74h-0.298c-0.03 2e-3-0.06-7e-3-0.084-0.026-0.023-0.016-0.04-0.037-0.05-0.062l-0.266-0.641h-1.277l-0.266 0.641c-8e-3 0.027-0.021 0.052-0.041 0.073-0.024 0.018-0.053 0.027-0.084 0.026h-0.298l1.129-2.698h0.393zM34.268 19.738h1.065l-0.451-1.098c-0.033-0.083-0.061-0.168-0.084-0.254-0.016 0.051-0.029 0.1-0.043 0.143l-0.041 0.113z" />
            <path d="M38.082 20.475c0.071 4e-3 0.141 4e-3 0.212 0 0.061-6e-3 0.121-0.017 0.181-0.032 0.055-0.013 0.11-0.029 0.162-0.049 0.05-0.019 0.099-0.043 0.151-0.066v-0.607h-0.451c-0.011 1e-3-0.022-1e-3-0.033-5e-3s-0.02-9e-3-0.028-0.017c-7e-3-6e-3-0.013-0.014-0.017-0.022s-6e-3-0.018-5e-3-0.027v-0.207h0.876v1.034c-0.071 0.048-0.147 0.091-0.226 0.128-0.081 0.038-0.164 0.068-0.251 0.092-0.092 0.026-0.187 0.044-0.282 0.056-0.109 0.011-0.219 0.017-0.33 0.017-0.195 2e-3-0.388-0.033-0.569-0.1-0.169-0.064-0.323-0.16-0.451-0.282-0.126-0.123-0.225-0.268-0.291-0.427-0.071-0.179-0.106-0.369-0.104-0.56-2e-3-0.192 0.032-0.383 0.102-0.564 0.065-0.16 0.164-0.305 0.291-0.427 0.129-0.121 0.282-0.217 0.451-0.28 0.193-0.069 0.398-0.103 0.605-0.1 0.105 0 0.21 8e-3 0.314 0.024 0.092 0.014 0.182 0.037 0.269 0.068 0.079 0.028 0.155 0.064 0.226 0.107 0.069 0.042 0.135 0.089 0.196 0.141l-0.108 0.167c-9e-3 0.015-0.021 0.028-0.037 0.037s-0.033 0.014-0.051 0.014c-0.025-1e-3-0.049-8e-3-0.07-0.021-0.034-0.017-0.07-0.038-0.111-0.064-0.048-0.028-0.099-0.053-0.151-0.073-0.067-0.026-0.137-0.046-0.208-0.06-0.095-0.016-0.191-0.024-0.287-0.024-0.149-2e-3-0.297 0.024-0.436 0.075-0.126 0.048-0.239 0.121-0.332 0.214-0.094 0.097-0.165 0.211-0.21 0.335-0.101 0.292-0.101 0.607 0 0.9 0.049 0.127 0.126 0.243 0.226 0.34 0.093 0.093 0.205 0.166 0.33 0.214 0.144 0.047 0.296 0.065 0.447 0.051z" />
            <path d="M41.679 20.432h1.232v0.308h-1.609v-2.699h0.386z" />
            <path d="M44.194 20.74h-0.386v-2.699h0.386z" />
            <path d="M45.629 18.054c0.023 0.012 0.043 0.029 0.059 0.049l1.65 2.034c-2e-3-0.032-2e-3-0.064 0-0.096 0-0.03 0-0.06 0-0.088V18.03h0.336v2.709H47.48c-0.029 2e-3-0.058-3e-3-0.084-0.015-0.023-0.013-0.044-0.031-0.061-0.051l-1.648-2.032c0 0.032 0 0.062 0 0.092s0 0.058 0 0.083v1.923h-0.323V18.04h0.201c0.022 0 0.043 4e-3 0.064 0.014z" />
            <path d="M50.516 18.041v0.297h-1.368v0.891h1.108v0.286h-1.108v0.921h1.368v0.297h-1.765v-2.692z" />
            <path d="M10.073 1.376 27.21 5.983v16.142l-17.137-4.604zM8.974 0v18.305l19.333 5.198V5.201z" />
            <path d="M19.335 32 0 26.797V8.494l19.335 5.201z" />
            <path d="M9.294 1.169 26.208 5.718l-7.193 6.811L2.099 7.978zM8.974 0 0 8.495l19.335 5.2 8.971-8.495z" />
            <path d="M20.423 30.97l7.884-7.465-7.884-2.122z" />
        </symbol>
        <symbol id="EXTRACT_SVGS_icon-logo-5" viewBox="0 0 40 32" fill="var(--color3, #afb1b8)">
            <path d="M3.055 26.742c0.156 0.194 0.24 0.438 0.236 0.688 8e-3 0.163-0.021 0.326-0.084 0.476s-0.159 0.285-0.281 0.393c-0.304 0.231-0.681 0.343-1.061 0.317H0v-4.361h1.827c0.361-0.024 0.718 0.078 1.012 0.29 0.118 0.099 0.211 0.224 0.273 0.366s0.089 0.296 0.081 0.45c0.011 0.241-0.065 0.477-0.212 0.667-0.142 0.173-0.338 0.293-0.556 0.341 0.247 0.045 0.471 0.177 0.63 0.373zM0.868 26.084h0.781c0.177 0.013 0.354-0.038 0.496-0.145 0.059-0.053 0.104-0.119 0.133-0.193s0.041-0.154 0.034-0.233c6e-3-0.079-6e-3-0.158-0.035-0.232s-0.073-0.14-0.13-0.194C2 24.977 1.818 24.925 1.636 24.94H0.868zM2.222 27.756c0.063-0.055 0.112-0.123 0.144-0.2s0.046-0.16 0.041-0.243c5e-3-0.084-0.01-0.168-0.042-0.246s-0.083-0.147-0.146-0.202c-0.153-0.114-0.341-0.17-0.53-0.158H0.87v1.199H1.7c0.187 0.011 0.372-0.043 0.522-0.15z" />
            <path d="M6.79 28.617 5.774 26.913H5.392v1.704H4.518v-4.361h1.655c0.417-0.029 0.83 0.103 1.152 0.371 0.231 0.237 0.371 0.549 0.393 0.879s-0.073 0.659-0.27 0.925c-0.204 0.235-0.483 0.391-0.789 0.443l1.082 1.743zM5.392 26.318h0.715c0.497 0 0.745-0.22 0.745-0.66 5e-3-0.09-8e-3-0.18-0.04-0.264s-0.08-0.161-0.143-0.226c-0.157-0.131-0.359-0.195-0.562-0.177H5.383z" />
            <path d="M11.568 27.739H9.826l-0.308 0.878H8.601l1.6-4.312h0.991l1.593 4.312h-0.917zM11.335 27.079l-0.637-1.841-0.637 1.841z" />
            <path d="M17.55 28.617h-0.868l-1.946-2.965v2.965H13.87v-4.361h0.866l1.946 2.983v-2.983h0.868z" />
            <path d="M22.502 27.573c-0.179 0.329-0.453 0.597-0.785 0.769-0.378 0.192-0.797 0.286-1.22 0.275h-1.545v-4.361h1.545c0.422-0.011 0.841 0.081 1.22 0.268 0.332 0.168 0.606 0.433 0.785 0.761 0.179 0.355 0.272 0.747 0.272 1.144s-0.093 0.789-0.272 1.144zM21.509 27.469c0.248-0.29 0.384-0.659 0.384-1.041s-0.136-0.751-0.384-1.041c-0.299-0.262-0.69-0.396-1.086-0.371H19.82v2.823h0.603c0.397 0.025 0.787-0.108 1.086-0.37z" />
            <path d="M12.111 0c0 0 11.201 4.246 10.963 10.39v10.392c0 0-11.193-4.248-10.959-10.392z" />
            <path d="M33.054 18.349c2.115-1.462 4.562-2.367 7.117-2.633v-3.253c-2.943 1.139-5.44 3.204-7.117 5.886z" />
            <path d="M31.783 19.329c1.731-3.5 4.733-6.202 8.388-7.548V2.407c0 0-15.952 6.048-15.614 14.797v14.795c0 0 0.711-0.271 1.829-0.778 0-0.473 0-0.95 0.051-1.429 0.33-4.062 2.253-7.826 5.346-10.463z" />
            <path d="M30.266 24.825c0.084-1.026 0.271-2.041 0.558-3.029-1.926 2.279-3.093 5.106-3.335 8.085-0.023 0.281-0.036 0.562-0.042 0.852 0.906-0.437 1.961-0.982 3.068-1.623-0.283-1.409-0.366-2.851-0.249-4.285z" />
            <path d="M30.9 24.878c-0.106 1.296-0.04 2.601 0.197 3.879 4.358-2.618 9.255-6.664 9.067-11.553v-0.426c-3.114 0.35-6.027 1.716-8.292 3.89-0.53 1.347-0.858 2.766-0.972 4.21z" />
        </symbol>
        <symbol id="EXTRACT_SVGS_icon-logo-3" viewBox="0 0 31 32" fill="var(--color3, #afb1b8)">
            <path d="M4.766 31.394c0.011 0 0.022 3e-3 0.033 7e-3s0.02 0.011 0.027 0.019l0.155 0.162c-0.12 0.131-0.268 0.236-0.435 0.307-0.195 0.078-0.405 0.116-0.616 0.11-0.199 4e-3-0.396-0.031-0.58-0.103-0.166-0.066-0.315-0.165-0.437-0.291-0.124-0.13-0.22-0.283-0.282-0.449-0.068-0.185-0.101-0.38-0.099-0.576-3e-3-0.197 0.033-0.393 0.106-0.578 0.067-0.167 0.169-0.32 0.299-0.449 0.132-0.127 0.29-0.226 0.464-0.293 0.19-0.07 0.393-0.105 0.597-0.103 0.19-4e-3 0.378 0.028 0.554 0.094 0.153 0.063 0.294 0.151 0.415 0.26l-0.129 0.173c-9e-3 0.012-0.02 0.023-0.033 0.031-0.015 0.01-0.034 0.015-0.052 0.013-0.02-1e-3-0.039-8e-3-0.056-0.018l-0.07-0.046-0.097-0.059c-0.042-0.022-0.085-0.041-0.129-0.057-0.057-0.02-0.116-0.035-0.176-0.046-0.076-0.013-0.153-0.019-0.23-0.018-0.147-2e-3-0.293 0.025-0.429 0.077-0.127 0.049-0.242 0.123-0.336 0.217-0.096 0.1-0.171 0.218-0.218 0.346-0.054 0.147-0.081 0.301-0.079 0.457-2e-3 0.158 0.025 0.315 0.079 0.464 0.047 0.127 0.12 0.244 0.214 0.344 0.088 0.094 0.198 0.167 0.321 0.214 0.126 0.05 0.261 0.075 0.398 0.074 0.079 1e-3 0.158-4e-3 0.236-0.015 0.127-0.015 0.25-0.057 0.357-0.123 0.054-0.034 0.105-0.072 0.153-0.114 0.02-0.018 0.046-0.029 0.075-0.031z" />
            <path d="M9.229 30.58c2e-3 0.195-0.033 0.389-0.104 0.573-0.063 0.166-0.162 0.318-0.291 0.445s-0.285 0.226-0.457 0.292c-0.378 0.137-0.796 0.137-1.175 0-0.171-0.066-0.326-0.166-0.454-0.293-0.129-0.129-0.229-0.282-0.294-0.449-0.139-0.371-0.139-0.776 0-1.147 0.066-0.167 0.166-0.32 0.294-0.451 0.129-0.123 0.284-0.218 0.454-0.282 0.378-0.14 0.797-0.14 1.175 0 0.172 0.066 0.327 0.166 0.456 0.293 0.127 0.128 0.226 0.279 0.292 0.444 0.072 0.184 0.107 0.38 0.104 0.575zM8.824 30.58c3e-3-0.156-0.022-0.312-0.073-0.46-0.043-0.127-0.114-0.244-0.207-0.344-0.091-0.095-0.202-0.169-0.327-0.217-0.275-0.101-0.579-0.101-0.854 0-0.124 0.048-0.236 0.123-0.327 0.217-0.094 0.099-0.165 0.217-0.209 0.344-0.098 0.3-0.098 0.621 0 0.92 0.044 0.127 0.115 0.245 0.209 0.344 0.091 0.094 0.202 0.168 0.327 0.215 0.275 0.098 0.579 0.098 0.854 0 0.124-0.048 0.236-0.121 0.327-0.215 0.093-0.1 0.163-0.217 0.207-0.344 0.052-0.148 0.077-0.304 0.073-0.46z" />
            <path d="M12.274 31.062l0.041 0.103c0.015-0.037 0.029-0.07 0.044-0.103 0.015-0.035 0.031-0.068 0.05-0.101l0.987-1.71c0.019-0.029 0.037-0.048 0.056-0.053 0.026-8e-3 0.054-0.011 0.081-9e-3h0.292v2.781h-0.346v-2.045c0-0.026 0-0.055 0-0.086-2e-3-0.032-2e-3-0.064 0-0.096l-0.993 1.734c-0.013 0.026-0.033 0.048-0.058 0.063s-0.055 0.023-0.085 0.023h-0.056c-0.03 0-0.06-8e-3-0.085-0.023s-0.046-0.037-0.058-0.064l-1.022-1.745c0 0.033 0 0.066 0 0.099s0 0.063 0 0.088v2.045h-0.334v-2.776h0.292c0.027-2e-3 0.055 2e-3 0.081 9e-3 0.024 0.011 0.043 0.03 0.054 0.053l1.009 1.712c0.02 0.032 0.037 0.065 0.05 0.101z" />
            <path d="M15.99 30.924v1.042h-0.386v-2.777h0.862c0.163-3e-3 0.325 0.017 0.481 0.061 0.125 0.034 0.241 0.093 0.34 0.173 0.086 0.075 0.152 0.168 0.193 0.272 0.046 0.113 0.068 0.234 0.066 0.355 2e-3 0.122-0.023 0.243-0.071 0.355-0.047 0.107-0.118 0.202-0.209 0.278-0.099 0.084-0.216 0.146-0.342 0.184-0.15 0.046-0.308 0.068-0.466 0.064zM15.99 30.626h0.467c0.102 1e-3 0.203-0.013 0.299-0.042 0.08-0.026 0.153-0.066 0.216-0.12 0.058-0.051 0.103-0.114 0.131-0.184 0.032-0.074 0.047-0.154 0.046-0.234 5e-3-0.077-9e-3-0.154-0.039-0.226s-0.076-0.137-0.135-0.19c-0.148-0.11-0.333-0.163-0.52-0.149h-0.467z" />
            <path d="M21.183 31.97h-0.305c-0.031 1e-3-0.061-8e-3-0.085-0.026-0.022-0.017-0.039-0.039-0.05-0.064l-0.263-0.672h-1.32l-0.272 0.672c-0.01 0.025-0.027 0.046-0.048 0.063-0.025 0.019-0.055 0.029-0.087 0.028h-0.305l1.159-2.782h0.402zM19.27 30.937h1.09l-0.46-1.132c-0.035-0.085-0.064-0.172-0.087-0.261l-0.044 0.145c-0.014 0.044-0.029 0.085-0.043 0.118z" />
            <path d="M22.852 29.201c0.023 0.012 0.043 0.029 0.058 0.05l1.691 2.097c0-0.033 0-0.066 0-0.098s0-0.063 0-0.092v-1.97h0.346v2.782h-0.193c-0.027 1e-3-0.055-5e-3-0.079-0.017-0.024-0.013-0.045-0.031-0.062-0.052l-1.689-2.095c2e-3 0.032 2e-3 0.064 0 0.096 0 0.031 0 0.059 0 0.085v1.983h-0.346v-2.782h0.205c0.024-1e-3 0.048 4e-3 0.069 0.013z" />
            <path d="M27.795 30.863v1.104h-0.386v-1.104l-1.068-1.675h0.346c0.03-2e-3 0.059 7e-3 0.083 0.024 0.021 0.018 0.039 0.039 0.052 0.063l0.669 1.081c0.027 0.046 0.05 0.088 0.07 0.129s0.035 0.079 0.048 0.118l0.05-0.12c0.019-0.044 0.041-0.086 0.066-0.127l0.659-1.088c0.014-0.022 0.031-0.042 0.05-0.059 0.023-0.019 0.053-0.029 0.083-0.028h0.35z" />
            <path d="M12.083 24.521c0.168 0.02 0.338 0.037 0.51 0.052 2.607-1.111 4.812-2.93 6.34-5.228s2.311-4.975 2.251-7.696l-2.873-2.737c0.584 2.896 0.311 5.89-0.789 8.647s-2.984 5.168-5.439 6.962z" />
            <path d="M11.057 24.393l0.077 0.015c2.625-1.789 4.626-4.286 5.744-7.17s1.304-6.021 0.531-9.006l-4.092-3.899c1.655 3.205 2.321 6.791 1.921 10.342s-1.85 6.921-4.181 9.718z" />
            <path d="M24.935 14.862c-0.695 2.989-2.384 5.685-4.815 7.687-0.71 0.588-1.476 1.112-2.288 1.565 1.98-0.554 3.799-1.534 5.318-2.864s2.697-2.975 3.444-4.808z" />
            <path d="M24.284 14.422l-2.363-2.251c-0.045 2.567-0.811 5.075-2.218 7.264s-3.404 3.98-5.783 5.185h0.012c0.53 0 1.06-0.03 1.586-0.09 2.223-0.865 4.187-2.24 5.717-4.004s2.577-3.861 3.049-6.104z" />
            <path d="M11.399 2.689 8.58 0C6.06 0.928 3.893 2.559 2.362 4.679S8e-3 9.311 0 11.885v0c9e-3 2.844 1.014 5.604 2.855 7.843s4.413 3.829 7.309 4.518c2.585-3.001 4.099-6.709 4.321-10.586s-0.859-7.72-3.086-10.971z" />
            <path d="M30.797 14.008c-0.01-3.374-1.422-6.608-3.926-8.994s-5.898-3.731-9.44-3.74c-1.637-2e-3-3.259 0.286-4.786 0.849l17.259 16.443c0.591-1.454 0.894-2.999 0.893-4.558z" />
        </symbol>
        <symbol id="EXTRACT_SVGS_icon-logo-2" viewBox="0 0 25 32" fill="var(--color3, #afb1b8)">
            <path d="M10.447 1.806h0.084c0.156 0 0.324 0.016 0.49 0.03 0.734 0.052 1.463 0.162 2.179 0.329V0.403c-0.738-0.185-1.491-0.305-2.249-0.358-0.288-0.022-0.595-0.036-0.909-0.044H9.779C8.256 7e-3 6.74 0.202 5.264 0.583c-1.68 0.419-3.293 1.075-4.79 1.948v17.475c1.442-0.783 2.976-1.381 4.566-1.779 1.256-0.32 2.539-0.517 3.833-0.588h0.051c0.216-0.011 0.433-0.017 0.655-0.019v-1.79c-1.681 0.022-3.353 0.244-4.982 0.662-0.602 0.157-1.185 0.325-1.731 0.513l-0.623 0.211V3.591l0.266-0.128C4.541 2.5 6.738 1.939 8.98 1.812c0.019-1e-3 0.037-1e-3 0.056 0 0.248-0.013 0.497-0.019 0.741-0.019h0.28c0.129 3e-3 0.258 6e-3 0.39 0.013z" />
            <path d="M14.837 3.651c-0.409 0-0.814-0.014-1.205-0.044-0.467-0.034-0.947-0.091-1.401-0.167-0.277-0.047-0.55-0.103-0.814-0.164v17.275c1.12 0.277 2.271 0.413 3.425 0.404 1.523-6e-3 3.039-0.201 4.515-0.581 1.68-0.42 3.294-1.075 4.792-1.948V1.263c-1.442 0.783-2.975 1.381-4.564 1.781-1.551 0.398-3.145 0.603-4.748 0.607zM21.745 3.95l0.623-0.21v13.63l-0.266 0.128c-1.021 0.486-2.087 0.869-3.184 1.144-1.331 0.344-2.7 0.522-4.074 0.527-0.411 0-0.819-0.017-1.214-0.052l-0.427-0.038V5.062L13.7 5.095c0.361 0.023 0.735 0.034 1.141 0.034 1.745-6e-3 3.483-0.229 5.173-0.663 0.581-0.153 1.158-0.325 1.731-0.516z" />
            <path d="M1.684 25.977c-0.09-0.093-0.197-0.166-0.317-0.214s-0.247-0.071-0.376-0.066c-0.137-2e-3-0.273 0.024-0.4 0.075-0.117 0.046-0.222 0.116-0.311 0.205s-0.156 0.196-0.201 0.313C0.03 26.413 6e-3 26.544 7e-3 26.677v2.335c-6e-3 0.165 0.026 0.328 0.092 0.479 0.055 0.12 0.135 0.226 0.233 0.313 0.093 0.079 0.203 0.135 0.321 0.166 0.114 0.032 0.231 0.048 0.349 0.049 0.13 1e-3 0.259-0.027 0.377-0.081 0.117-0.051 0.222-0.124 0.311-0.216 0.087-0.091 0.156-0.197 0.204-0.313 0.05-0.118 0.075-0.244 0.075-0.372v-0.261h-0.61v0.208c2e-3 0.071-0.01 0.142-0.036 0.208-0.02 0.05-0.05 0.095-0.089 0.131-0.038 0.031-0.081 0.053-0.128 0.067-0.041 0.014-0.084 0.021-0.128 0.022-0.054 6e-3-0.11-2e-3-0.16-0.024s-0.094-0.057-0.126-0.101c-0.058-0.094-0.086-0.203-0.081-0.313v-2.177c-4e-3-0.121 0.022-0.241 0.075-0.349 0.032-0.049 0.077-0.089 0.129-0.113s0.112-0.034 0.17-0.027c0.053-2e-3 0.105 9e-3 0.152 0.032s0.089 0.057 0.12 0.099c0.068 0.09 0.104 0.2 0.101 0.313v0.202h0.604v-0.238c1e-3-0.14-0.024-0.278-0.075-0.408-0.045-0.122-0.114-0.234-0.203-0.331z" />
            <path d="M5.31 25.95c-0.195-0.164-0.44-0.255-0.694-0.257-0.124 1e-3-0.248 0.023-0.364 0.066-0.119 0.042-0.228 0.107-0.322 0.191-0.101 0.091-0.182 0.202-0.237 0.327-0.061 0.143-0.092 0.297-0.089 0.452v2.239c-4e-3 0.158 0.026 0.314 0.089 0.459 0.055 0.12 0.136 0.227 0.237 0.313 0.093 0.087 0.203 0.154 0.322 0.197 0.117 0.043 0.24 0.065 0.364 0.066s0.248-0.023 0.364-0.066c0.121-0.044 0.233-0.111 0.33-0.197 0.097-0.087 0.176-0.194 0.23-0.313 0.063-0.144 0.093-0.301 0.089-0.459v-2.239c3e-3-0.155-0.027-0.31-0.089-0.452-0.054-0.123-0.133-0.235-0.23-0.327zM5.025 28.969c5e-3 0.06-3e-3 0.12-0.024 0.176s-0.054 0.107-0.097 0.148c-0.081 0.068-0.182 0.105-0.287 0.105S4.41 29.361 4.33 29.293c-0.043-0.041-0.076-0.092-0.097-0.148s-0.029-0.116-0.024-0.176V26.73c-5e-3-0.06 3e-3-0.12 0.024-0.176s0.054-0.107 0.097-0.148c0.081-0.068 0.182-0.105 0.287-0.105s0.207 0.037 0.287 0.105c0.043 0.041 0.076 0.092 0.097 0.148S5.03 26.67 5.025 26.73z" />
            <path d="M10.072 29.969V25.73H9.485l-0.771 2.244H8.703L7.926 25.73H7.345v4.239h0.606V27.39h0.011l0.593 1.823h0.302l0.598-1.823h0.011v2.579z" />
            <path d="M13.513 26.027c-0.093-0.105-0.211-0.184-0.342-0.232-0.142-0.046-0.29-0.068-0.439-0.066h-0.9v4.239h0.604v-1.656h0.311c0.188 9e-3 0.376-0.031 0.545-0.116 0.137-0.076 0.252-0.188 0.332-0.324 0.07-0.113 0.117-0.238 0.139-0.369 0.024-0.16 0.035-0.321 0.033-0.482 6e-3-0.204-0.014-0.407-0.059-0.606-0.04-0.147-0.117-0.281-0.224-0.388zM13.201 27.32c-3e-3 0.077-0.022 0.152-0.056 0.221-0.035 0.065-0.089 0.117-0.156 0.149-0.089 0.04-0.187 0.058-0.285 0.053h-0.276v-1.441h0.311c0.094-5e-3 0.187 0.014 0.272 0.053 0.062 0.036 0.112 0.091 0.142 0.157 0.033 0.074 0.051 0.155 0.053 0.236 0 0.089 0 0.183 0 0.282s6e-3 0.2 0 0.291z" />
            <path d="M16.374 25.73h-0.495l-0.934 4.239h0.604l0.177-0.911h0.823l0.177 0.911h0.604zM15.817 28.481l0.297-1.537h0.011l0.296 1.537z" />
            <path d="M20.277 28.283h-0.011l-0.912-2.554h-0.581v4.239h0.604v-2.549h0.012l0.923 2.549h0.568v-4.239h-0.604z" />
            <path d="M23.968 25.73l-0.486 1.685H23.47l-0.486-1.685h-0.64l0.83 2.447v1.792h0.604v-1.792l0.83-2.447z" />
            <path d="M0 31.166h0.291v0.817h0.198v-0.817h0.29v-0.167H1e-3z" />
            <path d="M2.447 30.999 2.066 31.983h0.21l0.081-0.224h0.392l0.084 0.224h0.215l-0.391-0.984zM2.416 31.593 2.55 31.228l0.134 0.365z" />
            <path d="M4.866 31.62h0.227v0.127C5.027 31.8 4.944 31.829 4.859 31.83c-0.04 2e-3-0.079-5e-3-0.116-0.021s-0.068-0.041-0.093-0.072c-0.052-0.075-0.078-0.165-0.073-0.257 0-0.219 0.095-0.329 0.283-0.329 0.05-5e-3 0.099 8e-3 0.14 0.037s0.07 0.071 0.082 0.12l0.195-0.038c-0.042-0.192-0.181-0.289-0.417-0.289-0.127-3e-3-0.25 0.042-0.344 0.127-0.05 0.049-0.088 0.108-0.112 0.174s-0.034 0.135-0.029 0.205c-6e-3 0.135 0.039 0.267 0.126 0.369 0.048 0.05 0.107 0.088 0.171 0.113S4.806 32.004 4.875 32c0.154 4e-3 0.304-0.052 0.417-0.157v-0.388H4.865z" />
            <path d="M7.337 30.999H7.138v0.984h0.69v-0.167h-0.49z" />
            <path d="M9.426 30.999H9.227v0.984h0.199z" />
            <path d="M11.469 31.656l-0.403-0.657h-0.193v0.984h0.185V31.34l0.395 0.643h0.198v-0.984h-0.182z" />
            <path d="M13.315 31.549h0.49v-0.167h-0.49v-0.216h0.528v-0.167h-0.727v0.984h0.747v-0.167h-0.548z" />
            <path d="M17.792 31.387h-0.388v-0.388h-0.198v0.984h0.198v-0.43h0.388v0.43h0.198v-0.984h-0.198z" />
            <path d="M19.649 31.549h0.492v-0.167h-0.492v-0.216h0.529v-0.167h-0.727v0.984h0.746v-0.167h-0.548z" />
            <path d="M22.168 31.549c0.171-0.027 0.258-0.117 0.258-0.274 5e-3-0.042-1e-3-0.084-0.018-0.123s-0.044-0.072-0.078-0.096c-0.089-0.045-0.189-0.065-0.288-0.058h-0.417v0.984h0.198V31.57h0.039c0.042-3e-3 0.084 5e-3 0.123 0.022 0.029 0.018 0.053 0.043 0.07 0.072l0.215 0.313h0.237l-0.12-0.192c-0.053-0.095-0.128-0.176-0.219-0.236zM21.969 31.413h-0.146v-0.247h0.156c0.068-5e-3 0.136 2e-3 0.201 0.023 0.014 0.013 0.026 0.029 0.033 0.046s0.011 0.037 0.01 0.056-6e-3 0.038-0.015 0.055-0.022 0.032-0.037 0.043c-0.065 0.02-0.133 0.028-0.202 0.024z" />
            <path d="M24.067 31.549h0.49v-0.167h-0.49v-0.216h0.529v-0.167h-0.729v0.984h0.747v-0.167h-0.548z" />
        </symbol>
        <symbol id="EXTRACT_SVGS_icon-logo-1" viewBox="0 0 29 32" fill="var(--color3, #afb1b8)">
            <path d="M3.9 0 8.65 4.497h13.251v12.545l4.75 4.497V0z" />
            <path d="M0 4.308v20.923h22.102v-8.317L8.791 4.313zM17.891 22.17H3.497V8.098h1.017v13.119h13.377z" />
            <path d="M6.365 28.923l0.532-1.095h0.444l-0.774 1.46v0.851H6.164v-0.851l-0.776-1.46h0.446zM8.647 29.6H7.752l-0.187 0.538H7.148l0.873-2.311h0.36l0.874 2.311H8.836zM7.864 29.276h0.67l-0.335-0.959zM10.229 29.515c0-0.107 0.029-0.205 0.087-0.294 0.058-0.09 0.173-0.196 0.344-0.319-0.09-0.113-0.153-0.209-0.189-0.289-0.035-0.079-0.052-0.156-0.052-0.23 0-0.181 0.055-0.324 0.165-0.428s0.258-0.159 0.444-0.159c0.168 0 0.306 0.05 0.413 0.149 0.108 0.098 0.162 0.221 0.162 0.367 0 0.096-0.024 0.185-0.073 0.267-0.049 0.08-0.129 0.161-0.24 0.241l-0.157 0.114 0.446 0.527c0.065-0.127 0.097-0.268 0.097-0.424h0.335c0 0.285-0.067 0.518-0.2 0.7l0.34 0.402h-0.448l-0.13-0.154c-0.165 0.124-0.362 0.186-0.59 0.186s-0.412-0.06-0.549-0.181c-0.136-0.122-0.205-0.28-0.205-0.475zM10.994 29.862c0.13 0 0.252-0.043 0.365-0.13l-0.505-0.595-0.049 0.035c-0.127 0.096-0.19 0.206-0.19 0.33 0 0.107 0.034 0.194 0.103 0.26s0.161 0.1 0.276 0.1zM10.781 28.373c0 0.089 0.055 0.201 0.164 0.335l0.176-0.121 0.049-0.04c0.066-0.058 0.098-0.133 0.098-0.224 0-0.06-0.023-0.112-0.068-0.154s-0.103-0.065-0.173-0.065c-0.075 0-0.135 0.025-0.179 0.076s-0.067 0.115-0.067 0.193zM14.979 29.386c-0.023 0.247-0.114 0.439-0.273 0.578-0.159 0.138-0.37 0.206-0.633 0.206-0.184 0-0.346-0.043-0.487-0.13-0.14-0.088-0.248-0.212-0.324-0.373s-0.116-0.348-0.119-0.56v-0.216c0-0.218 0.039-0.41 0.116-0.576s0.188-0.294 0.332-0.384c0.145-0.09 0.312-0.135 0.502-0.135 0.255 0 0.46 0.069 0.616 0.208s0.246 0.334 0.271 0.587h-0.4c-0.019-0.166-0.068-0.286-0.146-0.359-0.077-0.074-0.191-0.111-0.341-0.111-0.175 0-0.309 0.064-0.403 0.192-0.093 0.127-0.141 0.314-0.143 0.56v0.205c0 0.25 0.044 0.44 0.133 0.571s0.221 0.197 0.394 0.197c0.158 0 0.276-0.035 0.355-0.106s0.13-0.189 0.151-0.354zM17.184 29.043c0 0.226-0.039 0.425-0.117 0.597-0.078 0.17-0.19 0.302-0.336 0.394-0.145 0.091-0.312 0.136-0.501 0.136-0.187 0-0.354-0.046-0.502-0.136-0.146-0.092-0.259-0.223-0.34-0.392-0.079-0.169-0.12-0.364-0.121-0.586v-0.13c0-0.225 0.04-0.424 0.119-0.597 0.08-0.172 0.193-0.304 0.338-0.395 0.146-0.092 0.313-0.138 0.502-0.138s0.355 0.046 0.5 0.136c0.146 0.09 0.259 0.22 0.338 0.39 0.079 0.169 0.12 0.367 0.121 0.592zM16.782 28.923c0-0.256-0.049-0.452-0.146-0.589-0.096-0.136-0.233-0.205-0.411-0.205-0.174 0-0.309 0.068-0.408 0.205-0.097 0.135-0.147 0.328-0.149 0.576v0.133c0 0.254 0.049 0.45 0.148 0.589s0.237 0.208 0.413 0.208c0.178 0 0.314-0.068 0.409-0.203 0.096-0.135 0.144-0.333 0.144-0.594z" />
        </symbol>
        <symbol id="EXTRACT_SVGS_icon-Client" viewBox="0 0 60 32" fill="var(--color3, #afb1b8)">
            <path d="M24.533 7.111l2.598 2.46h7.248v6.861l2.598 2.46V7.111z" />
            <path d="M22.4 9.467v11.444h12.089v-4.549L27.208 9.47zM32.186 19.238h-7.873v-7.697h0.556v7.176h7.317z" />
            <path d="M25.881 22.931l0.291-0.599h0.243l-0.424 0.799v0.465h-0.22v-0.465l-0.424-0.799h0.244zM27.13 23.301h-0.49l-0.102 0.294H26.31l0.477-1.264h0.197l0.478 1.264h-0.229zM26.702 23.124h0.366L26.885 22.6zM27.995 23.255c0-0.058 0.016-0.112 0.048-0.161s0.095-0.107 0.188-0.174c-0.049-0.062-0.084-0.115-0.103-0.158s-0.029-0.085-0.029-0.126c0-0.099 0.03-0.177 0.09-0.234s0.141-0.087 0.243-0.087c0.092 0 0.167 0.027 0.226 0.082s0.089 0.121 0.089 0.201c0 0.053-0.013 0.101-0.04 0.146s-0.07 0.088-0.131 0.132l-0.086 0.063 0.244 0.288c0.035-0.069 0.053-0.147 0.053-0.232h0.183c0 0.156-0.036 0.283-0.109 0.383l0.186 0.22h-0.245l-0.071-0.084c-0.09 0.068-0.198 0.102-0.323 0.102s-0.225-0.033-0.3-0.099c-0.075-0.067-0.112-0.153-0.113-0.262zM28.413 23.445c0.071 0 0.138-0.024 0.2-0.071l-0.276-0.326-0.027 0.019c-0.069 0.053-0.104 0.113-0.104 0.181 0 0.058 0.019 0.106 0.056 0.142s0.088 0.055 0.151 0.055zM28.297 22.63c0 0.049 0.03 0.11 0.089 0.183l0.096-0.066 0.027-0.022c0.036-0.032 0.054-0.073 0.054-0.122 0-0.033-0.012-0.061-0.037-0.084s-0.056-0.036-0.095-0.036c-0.041 0-0.074 0.014-0.098 0.042s-0.036 0.063-0.036 0.105zM30.593 23.184c-0.013 0.135-0.063 0.24-0.149 0.316s-0.202 0.113-0.346 0.113c-0.101 0-0.189-0.024-0.267-0.071s-0.135-0.116-0.177-0.204-0.063-0.19-0.065-0.306v-0.118c0-0.119 0.021-0.224 0.063-0.315s0.103-0.161 0.181-0.21c0.079-0.049 0.171-0.074 0.274-0.074 0.14 0 0.252 0.038 0.337 0.114s0.135 0.183 0.148 0.321h-0.219c-0.01-0.091-0.037-0.156-0.08-0.196s-0.104-0.061-0.187-0.061c-0.095 0-0.169 0.035-0.22 0.105s-0.077 0.172-0.078 0.306v0.112c0 0.137 0.024 0.241 0.073 0.313s0.121 0.108 0.215 0.108c0.086 0 0.151-0.019 0.194-0.058s0.071-0.103 0.082-0.194zM31.799 22.997c0 0.124-0.021 0.233-0.064 0.326s-0.104 0.165-0.184 0.215c-0.079 0.05-0.171 0.075-0.274 0.075-0.102 0-0.194-0.025-0.274-0.075s-0.142-0.122-0.186-0.214c-0.043-0.093-0.065-0.199-0.066-0.32v-0.071c0-0.123 0.022-0.232 0.065-0.326s0.106-0.166 0.185-0.216c0.08-0.05 0.171-0.076 0.274-0.076s0.194 0.025 0.273 0.075c0.08 0.049 0.142 0.12 0.185 0.214s0.065 0.201 0.066 0.324zM31.579 22.931c0-0.14-0.027-0.247-0.08-0.322s-0.128-0.112-0.225-0.112c-0.095 0-0.169 0.037-0.223 0.112s-0.08 0.179-0.082 0.315v0.073c0 0.139 0.027 0.246 0.081 0.322s0.13 0.114 0.226 0.114c0.097 0 0.172-0.037 0.224-0.111s0.079-0.182 0.079-0.325z" />
        </symbol>
        <symbol id="EXTRACT_SVGS_icon-linkedin" viewBox="0 0 32 32" fill="var(--color3, #afb1b8)">
            <path d="M31.992 32v-1e-3H32V20.263c0-5.741-1.236-10.164-7.948-10.164-3.227 0-5.392 1.771-6.276 3.449h-0.093v-2.913h-6.364v21.364h6.627V21.42c0-2.785 0.528-5.479 3.977-5.479 3.399 0 3.449 3.179 3.449 5.657v10.401z" />
            <path d="M0.528 10.636h6.635V32H0.528z" />
            <path d="M3.843 0C1.722 0 0 1.721 0 3.843s1.721 3.879 3.843 3.879c2.121 0 3.843-1.757 3.843-3.879C7.685 1.722 5.963 0 3.843 0z" />
        </symbol>
        <symbol id="EXTRACT_SVGS_icon-facebook" viewBox="0 0 32 32">
            <path fill="var(--color3, #afb1b8)" d="M21.329 5.313h2.921V0.225C23.746 0.156 22.013 0 19.994 0c-4.212 0-7.097 2.649-7.097 7.519V12H8.249v5.688h4.648V32h5.699V17.689h4.46l0.708-5.688h-5.169V8.082c1e-3-1.644 0.444-2.769 2.734-2.769z" />
        </symbol>
        <symbol id="EXTRACT_SVGS_icon-twitter" viewBox="0 0 32 32">
            <path fill="var(--color3, #afb1b8)" d="M32 6.078c-1.19 0.522-2.458 0.868-3.78 1.036 1.36-0.812 2.398-2.088 2.886-3.626-1.268 0.756-2.668 1.29-4.16 1.588C25.742 3.794 24.026 3 22.154 3c-3.632 0-6.556 2.948-6.556 6.562 0 0.52 0.044 1.02 0.152 1.496-5.454-0.266-10.28-2.88-13.522-6.862C1.662 5.178 1.33 6.302 1.33 7.512c0 2.272 1.17 4.286 2.914 5.452-1.054-0.02-2.088-0.326-2.964-0.808 0 0.02 0 0.046 0 0.072 0 3.188 2.274 5.836 5.256 6.446-0.534 0.146-1.116 0.216-1.72 0.216-0.42 0-0.844-0.024-1.242-0.112 0.85 2.598 3.262 4.508 6.13 4.57-2.232 1.746-5.066 2.798-8.134 2.798-0.538 0-1.054-0.024-1.57-0.09C2.906 27.93 6.35 29 10.064 29c12.072 0 18.672-10 18.672-18.668 0-0.29-0.01-0.57-0.024-0.848C30.014 8.56 31.108 7.406 32 6.078z" />
        </symbol>
        <symbol id="EXTRACT_SVGS_icon-instagram" viewBox="0 0 32 32" fill="var(--color3, #afb1b8)">
            <path d="M31.969 9.408c-0.075-1.7-0.35-2.869-0.744-3.882-0.406-1.075-1.032-2.038-1.851-2.838-0.8-0.813-1.769-1.444-2.832-1.844C25.523 0.45 24.36 0.175 22.66 0.1 20.947 0.019 20.403 0 16.059 0s-4.888 0.019-6.595 0.094c-1.7 0.075-2.869 0.35-3.882 0.744-1.075 0.406-2.038 1.031-2.838 1.85C1.931 3.488 1.3 4.457 0.9 5.52 0.506 6.539 0.231 7.702 0.156 9.402c-0.081 1.713-0.1 2.257-0.1 6.601s0.019 4.888 0.094 6.595c0.075 1.7 0.35 2.869 0.744 3.882 0.406 1.075 1.038 2.038 1.85 2.838 0.8 0.813 1.769 1.444 2.832 1.844 1.019 0.394 2.182 0.669 3.882 0.744 1.706 0.075 2.25 0.094 6.595 0.094s4.888-0.019 6.595-0.094c1.7-0.075 2.869-0.35 3.882-0.744 2.151-0.832 3.851-2.532 4.682-4.682 0.394-1.019 0.669-2.182 0.744-3.882 0.075-1.707 0.094-2.251 0.094-6.595s-6e-3-4.888-0.081-6.595zM29.087 22.473c-0.069 1.563-0.331 2.407-0.55 2.969-0.538 1.394-1.644 2.5-3.038 3.038-0.563 0.219-1.413 0.481-2.969 0.55-1.688 0.075-2.194 0.094-6.464 0.094s-4.782-0.019-6.464-0.094c-1.563-0.069-2.407-0.331-2.969-0.55-0.694-0.256-1.325-0.663-1.838-1.194-0.531-0.519-0.938-1.144-1.194-1.838-0.219-0.563-0.481-1.413-0.55-2.969-0.075-1.688-0.094-2.194-0.094-6.464s0.019-4.782 0.094-6.464c0.069-1.563 0.331-2.407 0.55-2.969 0.256-0.694 0.663-1.325 1.2-1.838C5.32 4.213 5.945 3.806 6.639 3.55 7.202 3.331 8.052 3.069 9.608 3c1.688-0.075 2.194-0.094 6.464-0.094 4.276 0 4.782 0.019 6.464 0.094 1.563 0.069 2.407 0.331 2.969 0.55 0.694 0.256 1.325 0.662 1.838 1.194 0.531 0.519 0.938 1.144 1.194 1.838 0.219 0.563 0.481 1.413 0.55 2.969 0.075 1.688 0.094 2.194 0.094 6.464s-0.019 4.77-0.094 6.458z" />
            <path d="M16.059 7.783c-4.538 0-8.22 3.682-8.22 8.22s3.682 8.22 8.22 8.22c4.539 0 8.22-3.682 8.22-8.22s-3.682-8.22-8.22-8.22zM16.059 21.336c-2.944 0-5.332-2.388-5.332-5.332s2.388-5.332 5.332-5.332 5.332 2.388 5.332 5.332-2.388 5.332-5.332 5.332z" />
            <path d="M26.524 7.458c0 1.06-0.859 1.919-1.919 1.919s-1.919-0.859-1.919-1.919 0.859-1.919 1.919-1.919 1.919 0.859 1.919 1.919z" />
        </symbol>
        <symbol id="EXTRACT_SVGS_icon-envelope" viewBox="0 0 43 32">
            <path fill="var(--color4, #757575)" d="M38.667 0H4C1.794 0 0 1.794 0 4v24c0 2.206 1.794 4 4 4h34.667c2.206 0 4-1.794 4-4V4c0-2.206-1.794-4-4-4zM38.667 2.667c0.181 0 0.353 0.038 0.511 0.103L21.334 18.236 3.49 2.77c0.158-0.066 0.33-0.103 0.511-0.103zM38.667 29.333H4c-0.736 0-1.333-0.598-1.333-1.333V5.587L20.46 21.008c0.251 0.217 0.563 0.326 0.874 0.326s0.622-0.108 0.874-0.326L40.001 5.587V28c0 0.736-0.598 1.333-1.334 1.333z" />
        </symbol>
        <symbol id="EXTRACT_SVGS_icon-smartphone" viewBox="0 0 20 32" fill="var(--color4, #757575)">
            <path d="M17 0H3C1.346 0 0 1.346 0 3v26c0 1.654 1.346 3 3 3h14c1.654 0 3-1.346 3-3V3c0-1.654-1.346-3-3-3zM3 2h14c0.552 0 1 0.448 1 1v21H2V3c0-0.552 0.448-1 1-1zM17 30H3c-0.552 0-1-0.448-1-1v-3h16v3c0 0.552-0.448 1-1 1z" />
            <path d="M4.707 27.478c0.391 0.365 0.391 0.956 0 1.321s-1.024 0.365-1.414 0c-0.391-0.365-0.391-0.956 0-1.321s1.024-0.365 1.414 0z" />
        </symbol>
        <symbol id="EXTRACT_SVGS_icon-astronaut" viewBox="0 0 32 32" fill="var(--color5, #2196f3)">
            <path d="M31.974 4.524c-0.063-0.193-0.229-0.333-0.43-0.363l-1.91-0.278-0.855-1.731c-0.179-0.365-0.777-0.365-0.956 0l-0.855 1.731-1.91 0.278c-0.201 0.029-0.367 0.17-0.431 0.363-0.062 0.193-0.011 0.405 0.135 0.547l1.383 1.348-0.326 1.903c-0.034 0.2 0.048 0.402 0.212 0.522 0.166 0.121 0.382 0.135 0.562 0.04l1.709-0.899 1.709 0.899c0.078 0.041 0.164 0.061 0.249 0.061 0.11 0 0.221-0.034 0.314-0.102 0.164-0.119 0.246-0.322 0.212-0.522L30.46 6.418 31.843 5.07c0.145-0.142 0.197-0.354 0.131-0.546zM29.511 5.851c-0.125 0.122-0.183 0.299-0.153 0.472l0.191 1.114-1-0.526C28.471 6.87 28.386 6.85 28.3 6.85s-0.17 0.02-0.249 0.061L27.05 7.437l0.191-1.114c0.03-0.173-0.028-0.349-0.153-0.472l-0.81-0.789 1.119-0.163c0.174-0.025 0.324-0.134 0.402-0.292l0.5-1.013 0.5 1.013c0.078 0.157 0.228 0.267 0.402 0.292l1.119 0.163z" />
            <path d="M26.133 20.522h-1.067v1.067h1.067z" />
            <path d="M26.133 22.656h-1.067v1.067h1.067z" />
            <path d="M27.2 21.589h-1.067v1.067H27.2z" />
            <path d="M25.067 21.589H24v1.067h1.067z" />
            <path d="M22.4 26.389h-1.067v1.067H22.4z" />
            <path d="M22.4 28.522h-1.067v1.067H22.4z" />
            <path d="M23.467 27.456H22.4v1.067h1.067z" />
            <path d="M21.333 27.456h-1.067v1.067h1.067z" />
            <path d="M16 24.256h-1.067v1.067H16z" />
            <path d="M16 26.389h-1.067v1.067H16z" />
            <path d="M17.067 25.322H16v1.067h1.067z" />
            <path d="M14.933 25.322h-1.067v1.067h1.067z" />
            <path d="M5.867 6.122H4.8v1.067h1.067z" />
            <path d="M5.867 8.255H4.8v1.067h1.067z" />
            <path d="M6.933 7.189H5.866v1.067h1.067z" />
            <path d="M4.8 7.189H3.733v1.067H4.8z" />
            <path fill="var(--color2, #212121)" d="M24.715 14.159c-0.287-0.388-0.709-0.637-1.188-0.705-0.481-0.068-0.956 0.058-1.34 0.352l-1.252 0.96-1.898 1.417-1.358-0.541c2.421-1.086 4.114-3.508 4.114-6.32 0-3.823-3.123-6.933-6.961-6.933s-6.961 3.11-6.961 6.933c0 1.386 0.414 2.674 1.12 3.758l-2.764-0.024c-2e-3 0-3e-3 0-5e-3 0-9e-3 0-0.015 4e-3-0.023 5e-3-0.053 2e-3-0.105 0.013-0.155 0.031-0.013 5e-3-0.026 8e-3-0.038 0.013-6e-3 3e-3-0.013 3e-3-0.019 6e-3l-3.233 1.596c-1e-3 0-1e-3 0-1e-3 1e-3L0.86 15.619c-0.021 9e-3-0.042 0.021-0.063 0.035-0.755 0.502-1.012 1.489-0.598 2.295 0.22 0.429 0.595 0.745 1.056 0.889 0.178 0.055 0.359 0.083 0.539 0.083 0.29 0 0.577-0.071 0.839-0.211l1.388-0.738 2.264-1.169 1.357-8e-3L2.2 22.211c-1e-3 1e-3-1e-3 1e-3-2e-3 1e-3l-1.339 1.333c-0.316 0.315-0.49 0.732-0.49 1.178s0.174 0.863 0.49 1.179c0.325 0.323 0.752 0.485 1.179 0.485s0.854-0.162 1.18-0.485l1.314-1.309 1.741-1.3 0.901 0.897-1.762 1.754c0 1e-3-1e-3 1e-3-2e-3 1e-3l-1.339 1.333c-0.316 0.315-0.49 0.732-0.49 1.178s0.174 0.863 0.49 1.179c0.325 0.323 0.753 0.485 1.18 0.485s0.855-0.162 1.18-0.485l3.482-3.467c1e-3-1e-3 1e-3-1e-3 1e-3-2e-3l1.01-1-4e-3-4e-3c6e-3-6e-3 0.015-9e-3 0.022-0.015l5.166-5.658 3.471 0.494c0.025 4e-3 0.05 5e-3 0.075 5e-3 0.065 0 0.127-0.015 0.187-0.038 0.018-6e-3 0.033-0.015 0.05-0.023 0.019-0.01 0.039-0.015 0.058-0.027l3.213-2.133c0.012-8e-3 0.018-0.021 0.029-0.029 0.013-0.01 0.029-0.014 0.041-0.026l1.271-1.191c0.662-0.62 0.753-1.635 0.212-2.362zM2.13 17.77c-0.173 0.093-0.37 0.111-0.558 0.052-0.187-0.058-0.338-0.186-0.427-0.358-0.161-0.314-0.068-0.696 0.214-0.902l1.314-0.632 0.449 1.312zM5.628 15.942l-1.548 0.8-0.439-1.283 2.027-1.001zM20.727 9.322c0 0.918-0.219 1.785-0.599 2.559l-4.181-1.899c-0.044-0.573-0.341-1.075-0.788-1.388l1.464-4.86c2.378 0.756 4.105 2.974 4.104 5.588zM8.938 9.322c0-3.235 2.644-5.867 5.894-5.867 0.253 0 0.5 0.021 0.745 0.052l-1.432 4.754c-0.019-1e-3-0.037-6e-3-0.057-6e-3-1.033 0-1.873 0.837-1.873 1.867s0.84 1.867 1.873 1.867c0.694 0 1.294-0.383 1.618-0.945l3.862 1.755c-1.075 1.446-2.795 2.39-4.737 2.39-3.25 0-5.894-2.632-5.893-5.867zM14.894 10.122c0 0.441-0.362 0.8-0.806 0.8s-0.806-0.359-0.806-0.8 0.362-0.8 0.806-0.8 0.806 0.359 0.806 0.8zM2.465 25.146c-0.236 0.234-0.619 0.234-0.854 1e-3-0.114-0.114-0.176-0.263-0.176-0.423s0.062-0.309 0.176-0.421l0.962-0.958 0.851 0.848zM5.679 28.88c-0.236 0.234-0.619 0.235-0.855 1e-3-0.114-0.114-0.176-0.263-0.176-0.423s0.062-0.309 0.176-0.421l0.963-0.959 0.852 0.848zM9.16 25.411c-1e-3 0-1e-3 0-2e-3 1e-3l-1.765 1.76-0.852-0.848 1.763-1.755c0 0 0 0 0 0s1e-3-1e-3 2e-3-1e-3c0.04-0.04 0.065-0.088 0.09-0.135 7e-3-0.014 0.02-0.026 0.026-0.04 0.017-0.041 0.019-0.085 0.026-0.129 3e-3-0.025 0.014-0.047 0.014-0.073 0-0.036-0.013-0.07-0.02-0.106-6e-3-0.032-6e-3-0.065-0.019-0.095-0.02-0.05-0.055-0.094-0.091-0.138-0.01-0.012-0.014-0.027-0.025-0.038 0 0 0 0-1e-3 0s-1e-3-2e-3-1e-3-2e-3l-1.607-1.6c-0.017-0.017-0.039-0.024-0.058-0.038-0.028-0.022-0.055-0.042-0.087-0.058-0.03-0.015-0.061-0.024-0.093-0.033-0.034-0.01-0.067-0.017-0.103-0.02-0.033-2e-3-0.063 1e-3-0.095 5e-3-0.036 4e-3-0.069 9e-3-0.104 0.02-0.034 0.011-0.063 0.027-0.094 0.045-0.02 0.011-0.042 0.015-0.061 0.029L4.23 23.486 3.329 22.589l2.399-2.386 4.361 4.289zM15.979 18.394c-0.015-2e-3-0.03 4e-3-0.045 3e-3-0.039-2e-3-0.076 1e-3-0.115 7e-3-0.03 5e-3-0.059 0.011-0.088 0.021-0.034 0.012-0.065 0.028-0.097 0.047-0.03 0.018-0.057 0.037-0.083 0.061-0.013 0.011-0.028 0.017-0.04 0.029l-4.698 5.146-4.328-4.257 2.833-2.818c0.209-0.208 0.21-0.546 2e-3-0.755-0.105-0.105-0.243-0.157-0.381-0.156v-1e-3L6.72 15.734l0.028-1.607 3.104 0.027c1.265 1.294 3.029 2.101 4.981 2.101 0.437 0 0.864-0.045 1.279-0.123 0.04 0.032 0.079 0.065 0.13 0.085l2.41 0.96 0.152 0.758 0.178 0.885zM20.02 18.572l-0.313-1.558 1.446-1.08 0.947 1.257zM23.774 15.741l-0.838 0.785-0.931-1.236 0.831-0.637c0.155-0.119 0.351-0.168 0.543-0.143 0.193 0.027 0.364 0.128 0.48 0.284 0.217 0.292 0.18 0.699-0.085 0.947z" />
            <path fill="var(--color2, #212121)" d="M13.602 18.544l-2.143-2.133c-0.207-0.207-0.545-0.207-0.753 0l-2.142 2.133c-0.1 0.101-0.157 0.236-0.157 0.378S8.463 19.2 8.564 19.3l2.142 2.133c0.104 0.103 0.241 0.155 0.377 0.155s0.273-0.052 0.376-0.155l2.143-2.133c0.1-0.1 0.157-0.236 0.157-0.378s-0.057-0.278-0.157-0.378zM11.083 20.303 9.696 18.922l1.387-1.381 1.387 1.381z" />
            <path fill="var(--color2, #212121)" d="M17.164 5.071 16.906 6.107c0.071 0.018 1.738 0.452 1.738 2.149h1.067c0-2.017-1.666-2.965-2.547-3.185z" />
            <path fill="var(--color2, #212121)" d="M19.711 9.322h-1.067v1.067h1.067z" />
        </symbol>
        <symbol id="EXTRACT_SVGS_icon-diagram" viewBox="0 0 32 32" fill="var(--color5, #2196f3)">
            <path d="M14.926 14.965h1.066v4.798h-1.066z" />
            <path d="M19.19 17.097h1.066v2.665H19.19z" />
            <path d="M10.661 18.696h1.066v1.066h-1.066z" />
            <path d="M7.463 18.163h1.066v1.599H7.463z" />
            <path fill="var(--color2, #212121)" d="M1.599 28.291h25.587c0.883 0 1.599-0.716 1.599-1.599V24.56c0-0.883-0.716-1.599-1.599-1.599h-0.533V9.668L29.681 6.8c0.703 0.346 1.553 0.136 2.013-0.499s0.396-1.508-0.152-2.068-1.42-0.644-2.065-0.198c-0.644 0.446-0.873 1.292-0.542 2.002L26.654 8.2V6.97c0-0.883-0.716-1.599-1.599-1.599H3.733c-0.883 0-1.599 0.716-1.599 1.599v15.992H1.601c-0.883 0-1.599 0.716-1.599 1.599v2.132c0 0.883 0.716 1.599 1.597 1.598zM30.384 4.837c0.294 0 0.533 0.239 0.533 0.533s-0.239 0.533-0.533 0.533-0.533-0.239-0.533-0.533 0.239-0.533 0.533-0.533zM3.198 6.969c0-0.294 0.239-0.533 0.533-0.533h21.322c0.294 0 0.533 0.239 0.533 0.533v2.239l-1.066 1.013V8.035c0-0.294-0.239-0.533-0.533-0.533H4.797c-0.294 0-0.533 0.239-0.533 0.533v13.326c0 0.294 0.239 0.533 0.533 0.533h19.19c0.294 0 0.533-0.239 0.533-0.533v-9.674l1.066-1.01v12.284H3.198zM7.996 13.899c-0.721-2e-3-1.354 0.478-1.546 1.174s0.105 1.433 0.725 1.801 1.41 0.276 1.928-0.226l1.853 0.93c0.215 0.108 0.476 0.057 0.636-0.123l3.939-4.431 3.872 2.901c0.208 0.156 0.498 0.139 0.686-0.039l3.365-3.188v8.131H5.33V8.569h18.124v2.66l-3.771 3.572-3.904-2.927c-0.222-0.166-0.534-0.135-0.718 0.072l-3.993 4.493-1.493-0.746c0.011-0.064 0.018-0.129 0.02-0.193 0-0.883-0.716-1.599-1.599-1.601zM8.529 15.498c0 0.294-0.239 0.533-0.533 0.533s-0.533-0.239-0.533-0.533 0.239-0.533 0.533-0.533 0.533 0.239 0.533 0.533zM11.727 24.027h5.331v0.533c0 0.294-0.239 0.533-0.533 0.533h-4.264c-0.294 0-0.533-0.239-0.533-0.533zM1.066 24.56c0-0.294 0.239-0.533 0.533-0.533h9.062v0.533c0 0.883 0.716 1.599 1.599 1.599h4.264c0.883 0 1.599-0.716 1.599-1.599v-0.533h9.062c0.294 0 0.533 0.239 0.533 0.533v2.132c0 0.294-0.239 0.533-0.533 0.533H1.598c-0.294 0-0.533-0.239-0.533-0.533z" />
        </symbol>
        <symbol id="EXTRACT_SVGS_icon-clock" viewBox="0 0 32 32" fill="var(--color5, #2196f3)">
            <path fill="var(--color2, #212121)" d="M31.297 15.301C31.295 6.849 24.442-2e-3 15.989 0S0.686 6.855 0.688 15.308c1e-3 6.658 4.307 12.551 10.649 14.576 0.061 0.019 0.124 0.029 0.187 0.029 0.121 0 0.239-0.032 0.342-0.094 0.135-0.08 0.236-0.207 0.283-0.356l3.865-12.25c1.057-5e-3 1.909-0.866 1.903-1.923s-0.866-1.909-1.923-1.903c-0.284 1e-3-0.565 0.067-0.82 0.191l-5.106-5.107C9.815 8.226 9.411 8.233 9.166 8.487c-0.239 0.247-0.239 0.639 0 0.886l5.103 5.109c-0.392 0.799-0.168 1.764 0.536 2.309l-3.683 11.673C3.844 25.783 0.118 17.71 2.799 10.432S13.553-0.572 20.831 2.109s11.004 10.754 8.323 18.032c-1.31 3.556-4.001 6.431-7.462 7.973l-0.398-1.874c-0.073-0.344-0.411-0.565-0.756-0.492-0.109 0.023-0.209 0.074-0.292 0.148l-3.837 3.426c-0.263 0.234-0.287 0.637-0.052 0.9 0.076 0.085 0.174 0.149 0.283 0.184l4.899 1.563c0.335 0.108 0.694-0.077 0.802-0.412 0.034-0.106 0.04-0.219 0.017-0.328l-0.391-1.839c5.664-2.388 9.342-7.942 9.33-14.089zM15.992 14.664c0.352 0 0.638 0.286 0.638 0.638s-0.286 0.638-0.638 0.638-0.638-0.285-0.638-0.638 0.285-0.638 0.638-0.638zM18.093 29.528l2.184-1.948 0.603 2.84z" />
            <path d="M15.354 3.185V4.46c0 0.352 0.285 0.638 0.638 0.638S16.63 4.813 16.63 4.46V3.185c0-0.352-0.286-0.638-0.638-0.638s-0.638 0.286-0.638 0.638z" />
            <path d="M3.876 14.664c-0.352 0-0.638 0.286-0.638 0.638s0.285 0.638 0.638 0.638h1.275c0.352 0 0.638-0.285 0.638-0.638s-0.285-0.638-0.638-0.638z" />
            <path d="M28.108 15.939c0.352 0 0.638-0.285 0.638-0.638s-0.285-0.638-0.638-0.638h-1.275c-0.352 0-0.638 0.286-0.638 0.638s0.286 0.638 0.638 0.638z" />
        </symbol>
    </defs>
</svg>